700 0 1 0 
@25 ezdxf v1.4.4 ACIS Builder @12 ACIS 32.0 NT @24 Mon Sep  7 08:07:02 2026 
1 9.9999999999999995e-007 1e-010 
body $-1 -1 $-1 $2 $-1 $1 #
transform $-1 -1 1 0 0 0 1 0 0 0 1 5 10 15 1 no_rotate no_reflect no_shear #
lump $-1 -1 $-1 $-1 $3 $0 #
shell $-1 -1 $-1 $-1 $-1 $4 $-1 $2 #
face $-1 -1 $-1 $7 $5 $3 $-1 $6 forward single #
loop $-1 -1 $-1 $-1 $8 $4 #
plane-surface $-1 -1 $-1 -5 -10 -15 0 0 -1 0 1 0 forward_v I I I I #
face $-1 -1 $-1 $11 $9 $3 $-1 $10 forward single #
coedge $-1 -1 $-1 $14 $13 $15 $12 forward $5 $-1 #
loop $-1 -1 $-1 $-1 $16 $7 #
plane-surface $-1 -1 $-1 -5 -10 15 0 0 1 1 0 0 forward_v I I I I #
face $-1 -1 $-1 $19 $17 $3 $-1 $18 forward single #
edge $-1 -1 $-1 $20 0 $21 20 $8 $22 forward @7 unknown #
coedge $-1 -1 $-1 $8 $24 $25 $23 reversed $5 $-1 #
coedge $-1 -1 $-1 $24 $8 $27 $26 forward $5 $-1 #
coedge $-1 -1 $-1 $30 $29 $8 $12 reversed $28 $-1 #
coedge $-1 -1 $-1 $33 $32 $34 $31 forward $9 $-1 #
loop $-1 -1 $-1 $-1 $25 $11 #
plane-surface $-1 -1 $-1 -5 -10 -15 0 -1 0 1 0 0 forward_v I I I I #
face $-1 -1 $-1 $37 $35 $3 $-1 $36 forward single #
vertex $-1 -1 $-1 $12 $38 #
vertex $-1 -1 $-1 $12 $39 #
straight-curve $-1 -1 $-1 -5 -10 -15 0 1 0 I I #
edge $-1 -1 $-1 $20 0 $40 10 $13 $41 forward @7 unknown #
coedge $-1 -1 $-1 $13 $14 $43 $42 forward $5 $-1 #
coedge $-1 -1 $-1 $45 $44 $13 $23 forward $17 $-1 #
edge $-1 -1 $-1 $21 0 $46 10 $14 $47 forward @7 unknown #
coedge $-1 -1 $-1 $50 $49 $14 $26 reversed $48 $-1 #
loop $-1 -1 $-1 $-1 $15 $51 #
coedge $-1 -1 $-1 $15 $53 $50 $52 reversed $28 $-1 #
coedge $-1 -1 $-1 $53 $15 $44 $54 forward $28 $-1 #
edge $-1 -1 $-1 $55 0 $56 10 $16 $57 forward @7 unknown #
coedge $-1 -1 $-1 $16 $59 $53 $58 reversed $9 $-1 #
coedge $-1 -1 $-1 $59 $16 $61 $60 forward $9 $-1 #
coedge $-1 -1 $-1 $44 $45 $16 $31 reversed $17 $-1 #
loop $-1 -1 $-1 $-1 $43 $19 #
plane-surface $-1 -1 $-1 5 -10 -15 1 0 0 0 1 0 forward_v I I I I #
face $-1 -1 $-1 $51 $48 $3 $-1 $62 forward single #
point $-1 -1 $-1 -5 -10 -15 #
point $-1 -1 $-1 -5 10 -15 #
vertex $-1 -1 $-1 $42 $63 #
straight-curve $-1 -1 $-1 -5 -10 -15 1 0 0 I I #
edge $-1 -1 $-1 $46 0 $40 20 $24 $64 forward @7 unknown #
coedge $-1 -1 $-1 $66 $65 $24 $42 reversed $35 $-1 #
coedge $-1 -1 $-1 $25 $34 $30 $54 reversed $17 $-1 #
coedge $-1 -1 $-1 $34 $25 $65 $67 forward $17 $-1 #
vertex $-1 -1 $-1 $26 $68 #
straight-curve $-1 -1 $-1 -5 10 -15 1 0 0 I I #
loop $-1 -1 $-1 $-1 $27 $37 #
coedge $-1 -1 $-1 $27 $70 $66 $69 reversed $48 $-1 #
coedge $-1 -1 $-1 $70 $27 $29 $52 forward $48 $-1 #
face $-1 -1 $-1 $-1 $28 $3 $-1 $71 forward single #
edge $-1 -1 $-1 $21 0 $72 30 $50 $73 forward @7 unknown #
coedge $-1 -1 $-1 $29 $30 $32 $58 forward $28 $-1 #
edge $-1 -1 $-1 $20 0 $55 30 $44 $74 forward @7 unknown #
vertex $-1 -1 $-1 $31 $75 #
vertex $-1 -1 $-1 $31 $76 #
straight-curve $-1 -1 $-1 -5 -10 15 1 0 0 I I #
edge $-1 -1 $-1 $55 0 $72 20 $32 $77 forward @7 unknown #
coedge $-1 -1 $-1 $32 $33 $70 $78 forward $9 $-1 #
edge $-1 -1 $-1 $56 0 $79 20 $33 $80 forward @7 unknown #
coedge $-1 -1 $-1 $65 $66 $33 $60 reversed $35 $-1 #
plane-surface $-1 -1 $-1 5 10 -15 0 1 0 -1 0 0 forward_v I I I I #
point $-1 -1 $-1 5 -10 -15 #
straight-curve $-1 -1 $-1 5 10 -15 0 -1 0 I I #
coedge $-1 -1 $-1 $43 $61 $45 $67 reversed $35 $-1 #
coedge $-1 -1 $-1 $61 $43 $49 $69 forward $35 $-1 #
edge $-1 -1 $-1 $40 0 $56 30 $45 $81 forward @7 unknown #
point $-1 -1 $-1 5 10 -15 #
edge $-1 -1 $-1 $46 0 $79 30 $66 $82 forward @7 unknown #
coedge $-1 -1 $-1 $49 $50 $59 $78 reversed $48 $-1 #
plane-surface $-1 -1 $-1 -5 10 -15 -1 0 0 0 -1 0 forward_v I I I I #
vertex $-1 -1 $-1 $78 $83 #
straight-curve $-1 -1 $-1 -5 10 -15 0 0 1 I I #
straight-curve $-1 -1 $-1 -5 -10 -15 0 0 1 I I #
point $-1 -1 $-1 -5 -10 15 #
point $-1 -1 $-1 5 -10 15 #
straight-curve $-1 -1 $-1 -5 -10 15 0 1 0 I I #
edge $-1 -1 $-1 $79 0 $72 10 $59 $84 forward @7 unknown #
vertex $-1 -1 $-1 $60 $85 #
straight-curve $-1 -1 $-1 5 -10 15 0 1 0 I I #
straight-curve $-1 -1 $-1 5 -10 -15 0 0 1 I I #
straight-curve $-1 -1 $-1 5 10 -15 0 0 1 I I #
point $-1 -1 $-1 -5 10 15 #
straight-curve $-1 -1 $-1 5 10 15 -1 0 0 I I #
point $-1 -1 $-1 5 10 15 #
End-of-ACIS-data 