{"accessors":[{"bufferView":0,"byteOffset":0,"componentType":5126,"count":4,"max":[0.0,25.0,6.0],"min":[0.0,0.0,0.0],"type":"VEC3"},{"bufferView":0,"byteOffset":48,"componentType":5126,"count":4,"max":[40.0,0.0,6.0],"min":[0.0,0.0,0.0],"type":"VEC3"},{"bufferView":0,"byteOffset":96,"componentType":5126,"count":134,"max":[40.0,25.0,6.0],"min":[0.0,0.0,6.0],"type":"VEC3"},{"bufferView":0,"byteOffset":1704,"componentType":5126,"count":4,"max":[40.0,25.0,6.0],"min":[0.0,25.0,0.0],"type":"VEC3"},{"bufferView":0,"byteOffset":1752,"componentType":5126,"count":130,"max":[40.0,25.0,0.0],"min":[0.0,0.0,0.0],"type":"VEC3"},{"bufferView":0,"byteOffset":3312,"componentType":5126,"count":6,"max":[40.0,25.0,6.0],"min":[40.0,0.0,0.0],"type":"VEC3"},{"bufferView":0,"byteOffset":3384,"componentType":5126,"count":4,"max":[40.0,17.5,18.0],"min":[30.0,17.5,6.0],"type":"VEC3"},{"bufferView":0,"byteOffset":3432,"componentType":5126,"count":4,"max":[30.0,17.5,18.0],"min":[30.0,7.5,6.0],"type":"VEC3"},{"bufferView":0,"byteOffset":3480,"componentType":5126,"count":4,"max":[40.0,7.5,18.0],"min":[30.0,7.5,6.0],"type":"VEC3"},{"bufferView":0,"byteOffset":3528,"componentType":5126,"count":254,"max":[24.0,16.498756728003265,6.0],"min":[16.0,8.501243271996735,0.0],"type":"VEC3"},{"bufferView":0,"byteOffset":6576,"componentType":5126,"count":4,"max":[40.0,17.5,18.0],"min":[40.0,7.5,6.0],"type":"VEC3"},{"bufferView":0,"byteOffset":6624,"componentType":5126,"count":4,"max":[40.0,17.5,18.0],"min":[30.0,7.5,18.0],"type":"VEC3"},{"bufferView":0,"byteOffset":6672,"componentType":5126,"count":4,"max":[75.0,0.0,20.0],"min":[60.0,0.0,0.0],"type":"VEC3"},{"bufferView":0,"byteOffset":6720,"componentType":5126,"count":4,"max":[75.0,4.0,20.0],"min":[75.0,0.0,0.0],"type":"VEC3"},{"bufferView":0,"byteOffset":6768,"componentType":5126,"count":4,"max":[75.0,4.0,20.0],"min":[64.0,4.0,0.0],"type":"VEC3"},{"bufferView":0,"byteOffset":6816,"componentType":5126,"count":4,"max":[64.0,18.0,20.0],"min":[64.0,4.0,0.0],"type":"VEC3"},{"bufferView":0,"byteOffset":6864,"componentType":5126,"count":4,"max":[64.0,18.0,20.0],"min":[60.0,18.0,0.0],"type":"VEC3"},{"bufferView":0,"byteOffset":6912,"componentType":5126,"count":4,"max":[60.0,18.0,20.0],"min":[60.0,0.0,0.0],"type":"VEC3"},{"bufferView":0,"byteOffset":6960,"componentType":5126,"count":6,"max":[75.0,18.0,0.0],"min":[60.0,0.0,0.0],"type":"VEC3"},{"bufferView":0,"byteOffset":7032,"componentType":5126,"count":6,"max":[75.0,18.0,20.0],"min":[60.0,0.0,20.0],"type":"VEC3"},{"bufferView":1,"byteOffset":0,"componentType":5126,"count":4,"type":"VEC3"},{"bufferView":1,"byteOffset":48,"componentType":5126,"count":4,"type":"VEC3"},{"bufferView":1,"byteOffset":96,"componentType":5126,"count":134,"type":"VEC3"},{"bufferView":1,"byteOffset":1704,"componentType":5126,"count":4,"type":"VEC3"},{"bufferView":1,"byteOffset":1752,"componentType":5126,"count":130,"type":"VEC3"},{"bufferView":1,"byteOffset":3312,"componentType":5126,"count":6,"type":"VEC3"},{"bufferView":1,"byteOffset":3384,"componentType":5126,"count":4,"type":"VEC3"},{"bufferView":1,"byteOffset":3432,"componentType":5126,"count":4,"type":"VEC3"},{"bufferView":1,"byteOffset":3480,"componentType":5126,"count":4,"type":"VEC3"},{"bufferView":1,"byteOffset":3528,"componentType":5126,"count":254,"type":"VEC3"},{"bufferView":1,"byteOffset":6576,"componentType":5126,"count":4,"type":"VEC3"},{"bufferView":1,"byteOffset":6624,"componentType":5126,"count":4,"type":"VEC3"},{"bufferView":1,"byteOffset":6672,"componentType":5126,"count":4,"type":"VEC3"},{"bufferView":1,"byteOffset":6720,"componentType":5126,"count":4,"type":"VEC3"},{"bufferView":1,"byteOffset":6768,"componentType":5126,"count":4,"type":"VEC3"},{"bufferView":1,"byteOffset":6816,"componentType":5126,"count":4,"type":"VEC3"},{"bufferView":1,"byteOffset":6864,"componentType":5126,"count":4,"type":"VEC3"},{"bufferView":1,"byteOffset":6912,"componentType":5126,"count":4,"type":"VEC3"},{"bufferView":1,"byteOffset":6960,"componentType":5126,"count":6,"type":"VEC3"},{"bufferView":1,"byteOffset":7032,"componentType":5126,"count":6,"type":"VEC3"},{"bufferView":2,"byteOffset":0,"componentType":5123,"count":6,"type":"SCALAR"},{"bufferView":2,"byteOffset":12,"componentType":5123,"count":6,"type":"SCALAR"},{"bufferView":2,"byteOffset":24,"componentType":5123,"count":402,"type":"SCALAR"},{"bufferView":2,"byteOffset":828,"componentType":5123,"count":6,"type":"SCALAR"},{"bufferView":2,"byteOffset":840,"componentType":5123,"count":390,"type":"SCALAR"},{"bufferView":2,"byteOffset":1620,"componentType":5123,"count":12,"type":"SCALAR"},{"bufferView":2,"byteOffset":1644,"componentType":5123,"count":6,"type":"SCALAR"},{"bufferView":2,"byteOffset":1656,"componentType":5123,"count":6,"type":"SCALAR"},{"bufferView":2,"byteOffset":1668,"componentType":5123,"count":6,"type":"SCALAR"},{"bufferView":2,"byteOffset":1680,"componentType":5123,"count":756,"type":"SCALAR"},{"bufferView":2,"byteOffset":3192,"componentType":5123,"count":6,"type":"SCALAR"},{"bufferView":2,"byteOffset":3204,"componentType":5123,"count":6,"type":"SCALAR"},{"bufferView":2,"byteOffset":3216,"componentType":5123,"count":6,"type":"SCALAR"},{"bufferView":2,"byteOffset":3228,"componentType":5123,"count":6,"type":"SCALAR"},{"bufferView":2,"byteOffset":3240,"componentType":5123,"count":6,"type":"SCALAR"},{"bufferView":2,"byteOffset":3252,"componentType":5123,"count":6,"type":"SCALAR"},{"bufferView":2,"byteOffset":3264,"componentType":5123,"count":6,"type":"SCALAR"},{"bufferView":2,"byteOffset":3276,"componentType":5123,"count":6,"type":"SCALAR"},{"bufferView":2,"byteOffset":3288,"componentType":5123,"count":12,"type":"SCALAR"},{"bufferView":2,"byteOffset":3312,"componentType":5123,"count":12,"type":"SCALAR"}],"asset":{"generator":"Open CASCADE Technology 7.9 [dev.opencascade.org]","version":"2.0"},"bufferViews":[{"buffer":0,"byteLength":7104,"byteOffset":0,"byteStride":12,"target":34962},{"buffer":0,"byteLength":7104,"byteOffset":7104,"byteStride":12,"target":34962},{"buffer":0,"byteLength":3336,"byteOffset":14208,"target":34963}],"buffers":[{"byteLength":17544,"uri":"b_assy_rt.bin"}],"materials":[{"name":"mat_0","pbrMetallicRoughness":{"baseColorFactor":[0.03310476616024971,0.31854677200317383,0.03310476616024971,1.0]},"doubleSided":true}],"meshes":[{"name":"IMPORTED","primitives":[{"attributes":{"NORMAL":20,"POSITION":0},"indices":40,"material":0,"mode":4},{"attributes":{"NORMAL":21,"POSITION":1},"indices":41,"material":0,"mode":4},{"attributes":{"NORMAL":22,"POSITION":2},"indices":42,"material":0,"mode":4},{"attributes":{"NORMAL":23,"POSITION":3},"indices":43,"material":0,"mode":4},{"attributes":{"NORMAL":24,"POSITION":4},"indices":44,"material":0,"mode":4},{"attributes":{"NORMAL":25,"POSITION":5},"indices":45,"material":0,"mode":4},{"attributes":{"NORMAL":26,"POSITION":6},"indices":46,"material":0,"mode":4},{"attributes":{"NORMAL":27,"POSITION":7},"indices":47,"material":0,"mode":4},{"attributes":{"NORMAL":28,"POSITION":8},"indices":48,"material":0,"mode":4},{"attributes":{"NORMAL":29,"POSITION":9},"indices":49,"material":0,"mode":4},{"attributes":{"NORMAL":30,"POSITION":10},"indices":50,"material":0,"mode":4},{"attributes":{"NORMAL":31,"POSITION":11},"indices":51,"material":0,"mode":4},{"attributes":{"NORMAL":32,"POSITION":12},"indices":52,"material":0,"mode":4},{"attributes":{"NORMAL":33,"POSITION":13},"indices":53,"material":0,"mode":4},{"attributes":{"NORMAL":34,"POSITION":14},"indices":54,"material":0,"mode":4},{"attributes":{"NORMAL":35,"POSITION":15},"indices":55,"material":0,"mode":4},{"attributes":{"NORMAL":36,"POSITION":16},"indices":56,"material":0,"mode":4},{"attributes":{"NORMAL":37,"POSITION":17},"indices":57,"material":0,"mode":4},{"attributes":{"NORMAL":38,"POSITION":18},"indices":58,"material":0,"mode":4},{"attributes":{"NORMAL":39,"POSITION":19},"indices":59,"material":0,"mode":4}]}],"nodes":[{"children":[1],"rotation":[-0.7071067811865475,0.0,0.0,0.7071067811865475],"name":"RT"},{"mesh":0,"name":"IMPORTED"}],"scene":0,"scenes":[{"nodes":[0]}]}