                                                                        S0000001
,,31HOpen CASCADE IGES processor 7.9,13HFilename.iges,                  G0000001
16HOpen CASCADE 7.9,31HOpen CASCADE IGES processor 7.9,32,308,15,308,15,G0000002
,1.,2,2HMM,1,0.01,15H20260907.081754,1E-07,75.,8Houtsider,,11,0,        G0000003
15H20260907.081754,;                                                    G0000004
     402       1       0       0       0       0       0       000000000D0000001
     402       0       0       1       1                               0D0000002
     186       2       0       0       0       0       0       000020000D0000003
     186       0       0       1       0                               0D0000004
     514       3       0       0       0       0       0       000010000D0000005
     514       0       0       2       1                               0D0000006
     510       5       0       0       0       0       0       000010000D0000007
     510       0       0       1       1                               0D0000008
     190       6       0       0       0       0       0       000010000D0000009
     190       0       0       1       1                               0D0000010
     116       7       0       0       0       0       0       000010400D0000011
     116       0       0       1       0                               0D0000012
     123       8       0       0       0       0       0       000010200D0000013
     123       0       0       1       0                               0D0000014
     123       9       0       0       0       0       0       000010200D0000015
     123       0       0       1       0                               0D0000016
     508      10       0       0       0       0       0       000010000D0000017
     508       0       0       1       1                               0D0000018
     504      11       0       0       0       0       0       000010001D0000019
     504       0       0       7       1                               0D0000020
     110      18       0       0       0       0       0       000010000D0000021
     110       0       0       1       0                               0D0000022
     502      19       0       0       0       0       0       000010000D0000023
     502       0       0       4       1                               0D0000024
     110      23       0       0       0       0       0       000010000D0000025
     110       0       0       1       0                               0D0000026
     110      24       0       0       0       0       0       000010000D0000027
     110       0       0       1       0                               0D0000028
     110      25       0       0       0       0       0       000010000D0000029
     110       0       0       1       0                               0D0000030
     110      26       0       0       0       0       0       000010000D0000031
     110       0       0       1       0                               0D0000032
     110      27       0       0       0       0       0       000010000D0000033
     110       0       0       1       0                               0D0000034
     110      28       0       0       0       0       0       000010000D0000035
     110       0       0       1       0                               0D0000036
     110      29       0       0       0       0       0       000010000D0000037
     110       0       0       1       0                               0D0000038
     110      30       0       0       0       0       0       000010000D0000039
     110       0       0       1       0                               0D0000040
     110      31       0       0       0       0       0       000010000D0000041
     110       0       0       1       0                               0D0000042
     110      32       0       0       0       0       0       000010000D0000043
     110       0       0       1       0                               0D0000044
     110      33       0       0       0       0       0       000010000D0000045
     110       0       0       1       0                               0D0000046
     110      34       0       0       0       0       0       000010000D0000047
     110       0       0       1       0                               0D0000048
     100      35       0       0       0       0      51       000010000D0000049
     100       0       0       1       0                               0D0000050
     124      36       0       0       0       0       0       000000000D0000051
     124       0       0       1       0                               0D0000052
     110      37       0       0       0       0       0       000010000D0000053
     110       0       0       1       0                               0D0000054
     110      38       0       0       0       0       0       000010000D0000055
     110       0       0       1       0                               0D0000056
     110      39       0       0       0       0       0       000010000D0000057
     110       0       0       1       0                               0D0000058
     100      40       0       0       0       0      61       000010000D0000059
     100       0       0       1       0                               0D0000060
     124      41       0       0       0       0       0       000000000D0000061
     124       0       0       1       0                               0D0000062
     110      42       0       0       0       0       0       000010000D0000063
     110       0       0       1       0                               0D0000064
     110      43       0       0       0       0       0       000010000D0000065
     110       0       0       1       0                               0D0000066
     110      44       0       0       0       0       0       000010000D0000067
     110       0       0       1       0                               0D0000068
     110      45       0       0       0       0       0       000010000D0000069
     110       0       0       1       0                               0D0000070
     110      46       0       0       0       0       0       000010000D0000071
     110       0       0       1       0                               0D0000072
     110      47       0       0       0       0       0       000010000D0000073
     110       0       0       1       0                               0D0000074
     110      48       0       0       0       0       0       000010000D0000075
     110       0       0       1       0                               0D0000076
     110      49       0       0       0       0       0       000010000D0000077
     110       0       0       1       0                               0D0000078
     110      50       0       0       0       0       0       000010000D0000079
     110       0       0       1       0                               0D0000080
     110      51       0       0       0       0       0       000010000D0000081
     110       0       0       1       0                               0D0000082
     510      52       0       0       0       0       0       000010000D0000083
     510       0       0       1       1                               0D0000084
     190      53       0       0       0       0       0       000010000D0000085
     190       0       0       1       1                               0D0000086
     116      54       0       0       0       0       0       000010400D0000087
     116       0       0       1       0                               0D0000088
     123      55       0       0       0       0       0       000010200D0000089
     123       0       0       1       0                               0D0000090
     123      56       0       0       0       0       0       000010200D0000091
     123       0       0       1       0                               0D0000092
     508      57       0       0       0       0       0       000010000D0000093
     508       0       0       1       1                               0D0000094
     510      58       0       0       0       0       0       000010000D0000095
     510       0       0       1       1                               0D0000096
     190      59       0       0       0       0       0       000010000D0000097
     190       0       0       1       1                               0D0000098
     116      60       0       0       0       0       0       000010400D0000099
     116       0       0       1       0                               0D0000100
     123      61       0       0       0       0       0       000010200D0000101
     123       0       0       1       0                               0D0000102
     123      62       0       0       0       0       0       000010200D0000103
     123       0       0       1       0                               0D0000104
     508      63       0       0       0       0       0       000010000D0000105
     508       0       0       2       1                               0D0000106
     508      65       0       0       0       0       0       000010000D0000107
     508       0       0       1       1                               0D0000108
     510      66       0       0       0       0       0       000010000D0000109
     510       0       0       1       1                               0D0000110
     190      67       0       0       0       0       0       000010000D0000111
     190       0       0       1       1                               0D0000112
     116      68       0       0       0       0       0       000010400D0000113
     116       0       0       1       0                               0D0000114
     123      69       0       0       0       0       0       000010200D0000115
     123       0       0       1       0                               0D0000116
     123      70       0       0       0       0       0       000010200D0000117
     123       0       0       1       0                               0D0000118
     508      71       0       0       0       0       0       000010000D0000119
     508       0       0       1       1                               0D0000120
     510      72       0       0       0       0       0       000010000D0000121
     510       0       0       1       1                               0D0000122
     190      73       0       0       0       0       0       000010000D0000123
     190       0       0       1       1                               0D0000124
     116      74       0       0       0       0       0       000010400D0000125
     116       0       0       1       0                               0D0000126
     123      75       0       0       0       0       0       000010200D0000127
     123       0       0       1       0                               0D0000128
     123      76       0       0       0       0       0       000010200D0000129
     123       0       0       1       0                               0D0000130
     508      77       0       0       0       0       0       000010000D0000131
     508       0       0       1       1                               0D0000132
     508      78       0       0       0       0       0       000010000D0000133
     508       0       0       1       1                               0D0000134
     510      79       0       0       0       0       0       000010000D0000135
     510       0       0       1       1                               0D0000136
     190      80       0       0       0       0       0       000010000D0000137
     190       0       0       1       1                               0D0000138
     116      81       0       0       0       0       0       000010400D0000139
     116       0       0       1       0                               0D0000140
     123      82       0       0       0       0       0       000010200D0000141
     123       0       0       1       0                               0D0000142
     123      83       0       0       0       0       0       000010200D0000143
     123       0       0       1       0                               0D0000144
     508      84       0       0       0       0       0       000010000D0000145
     508       0       0       2       1                               0D0000146
     510      86       0       0       0       0       0       000010000D0000147
     510       0       0       1       1                               0D0000148
     190      87       0       0       0       0       0       000010000D0000149
     190       0       0       1       1                               0D0000150
     116      88       0       0       0       0       0       000010400D0000151
     116       0       0       1       0                               0D0000152
     123      89       0       0       0       0       0       000010200D0000153
     123       0       0       1       0                               0D0000154
     123      90       0       0       0       0       0       000010200D0000155
     123       0       0       1       0                               0D0000156
     508      91       0       0       0       0       0       000010000D0000157
     508       0       0       1       1                               0D0000158
     510      92       0       0       0       0       0       000010000D0000159
     510       0       0       1       1                               0D0000160
     190      93       0       0       0       0       0       000010000D0000161
     190       0       0       1       1                               0D0000162
     116      94       0       0       0       0       0       000010400D0000163
     116       0       0       1       0                               0D0000164
     123      95       0       0       0       0       0       000010200D0000165
     123       0       0       1       0                               0D0000166
     123      96       0       0       0       0       0       000010200D0000167
     123       0       0       1       0                               0D0000168
     508      97       0       0       0       0       0       000010000D0000169
     508       0       0       1       1                               0D0000170
     510      98       0       0       0       0       0       000010000D0000171
     510       0       0       1       1                               0D0000172
     190      99       0       0       0       0       0       000010000D0000173
     190       0       0       1       1                               0D0000174
     116     100       0       0       0       0       0       000010400D0000175
     116       0       0       1       0                               0D0000176
     123     101       0       0       0       0       0       000010200D0000177
     123       0       0       1       0                               0D0000178
     123     102       0       0       0       0       0       000010200D0000179
     123       0       0       1       0                               0D0000180
     508     103       0       0       0       0       0       000010000D0000181
     508       0       0       1       1                               0D0000182
     510     104       0       0       0       0       0       000010000D0000183
     510       0       0       1       1                               0D0000184
     192     105       0       0       0       0       0       000010000D0000185
     192       0       0       1       1                               0D0000186
     116     106       0       0       0       0       0       000010400D0000187
     116       0       0       1       0                               0D0000188
     123     107       0       0       0       0       0       000010200D0000189
     123       0       0       1       0                               0D0000190
     123     108       0       0       0       0       0       000010200D0000191
     123       0       0       1       0                               0D0000192
     508     109       0       0       0       0       0       000010000D0000193
     508       0       0       2       1                               0D0000194
     110     111       0       0       0       0       0       000010000D0000195
     110       0       0       1       0                               0D0000196
     110     112       0       0       0       0       0       000010000D0000197
     110       0       0       1       0                               0D0000198
     110     113       0       0       0       0       0       000010000D0000199
     110       0       0       1       0                               0D0000200
     110     114       0       0       0       0       0       000010000D0000201
     110       0       0       1       0                               0D0000202
     510     115       0       0       0       0       0       000010000D0000203
     510       0       0       1       1                               0D0000204
     190     116       0       0       0       0       0       000010000D0000205
     190       0       0       1       1                               0D0000206
     116     117       0       0       0       0       0       000010400D0000207
     116       0       0       1       0                               0D0000208
     123     118       0       0       0       0       0       000010200D0000209
     123       0       0       1       0                               0D0000210
     123     119       0       0       0       0       0       000010200D0000211
     123       0       0       1       0                               0D0000212
     508     120       0       0       0       0       0       000010000D0000213
     508       0       0       1       1                               0D0000214
     510     121       0       0       0       0       0       000010000D0000215
     510       0       0       1       1                               0D0000216
     190     122       0       0       0       0       0       000010000D0000217
     190       0       0       1       1                               0D0000218
     116     123       0       0       0       0       0       000010400D0000219
     116       0       0       1       0                               0D0000220
     123     124       0       0       0       0       0       000010200D0000221
     123       0       0       1       0                               0D0000222
     123     125       0       0       0       0       0       000010200D0000223
     123       0       0       1       0                               0D0000224
     508     126       0       0       0       0       0       000010000D0000225
     508       0       0       1       1                               0D0000226
     186     127       0       0       0       0       0       000000000D0000227
     186       0       0       1       0                               0D0000228
     514     128       0       0       0       0       0       000010000D0000229
     514       0       0       1       1                               0D0000230
     510     129       0       0       0       0       0       000010000D0000231
     510       0       0       1       1                               0D0000232
     190     130       0       0       0       0       0       000010000D0000233
     190       0       0       1       1                               0D0000234
     116     131       0       0       0       0       0       000010400D0000235
     116       0       0       1       0                               0D0000236
     123     132       0       0       0       0       0       000010200D0000237
     123       0       0       1       0                               0D0000238
     123     133       0       0       0       0       0       000010200D0000239
     123       0       0       1       0                               0D0000240
     508     134       0       0       0       0       0       000010000D0000241
     508       0       0       1       1                               0D0000242
     504     135       0       0       0       0       0       000010001D0000243
     504       0       0       5       1                               0D0000244
     110     140       0       0       0       0       0       000010000D0000245
     110       0       0       1       0                               0D0000246
     502     141       0       0       0       0       0       000010000D0000247
     502       0       0       3       1                               0D0000248
     110     144       0       0       0       0       0       000010000D0000249
     110       0       0       1       0                               0D0000250
     110     145       0       0       0       0       0       000010000D0000251
     110       0       0       1       0                               0D0000252
     110     146       0       0       0       0       0       000010000D0000253
     110       0       0       1       0                               0D0000254
     110     147       0       0       0       0       0       000010000D0000255
     110       0       0       1       0                               0D0000256
     110     148       0       0       0       0       0       000010000D0000257
     110       0       0       1       0                               0D0000258
     110     149       0       0       0       0       0       000010000D0000259
     110       0       0       1       0                               0D0000260
     110     150       0       0       0       0       0       000010000D0000261
     110       0       0       1       0                               0D0000262
     110     151       0       0       0       0       0       000010000D0000263
     110       0       0       1       0                               0D0000264
     110     152       0       0       0       0       0       000010000D0000265
     110       0       0       1       0                               0D0000266
     110     153       0       0       0       0       0       000010000D0000267
     110       0       0       1       0                               0D0000268
     110     154       0       0       0       0       0       000010000D0000269
     110       0       0       1       0                               0D0000270
     110     155       0       0       0       0       0       000010000D0000271
     110       0       0       1       0                               0D0000272
     110     156       0       0       0       0       0       000010000D0000273
     110       0       0       1       0                               0D0000274
     110     157       0       0       0       0       0       000010000D0000275
     110       0       0       1       0                               0D0000276
     110     158       0       0       0       0       0       000010000D0000277
     110       0       0       1       0                               0D0000278
     110     159       0       0       0       0       0       000010000D0000279
     110       0       0       1       0                               0D0000280
     110     160       0       0       0       0       0       000010000D0000281
     110       0       0       1       0                               0D0000282
     510     161       0       0       0       0       0       000010000D0000283
     510       0       0       1       1                               0D0000284
     190     162       0       0       0       0       0       000010000D0000285
     190       0       0       1       1                               0D0000286
     116     163       0       0       0       0       0       000010400D0000287
     116       0       0       1       0                               0D0000288
     123     164       0       0       0       0       0       000010200D0000289
     123       0       0       1       0                               0D0000290
     123     165       0       0       0       0       0       000010200D0000291
     123       0       0       1       0                               0D0000292
     508     166       0       0       0       0       0       000010000D0000293
     508       0       0       1       1                               0D0000294
     510     167       0       0       0       0       0       000010000D0000295
     510       0       0       1       1                               0D0000296
     190     168       0       0       0       0       0       000010000D0000297
     190       0       0       1       1                               0D0000298
     116     169       0       0       0       0       0       000010400D0000299
     116       0       0       1       0                               0D0000300
     123     170       0       0       0       0       0       000010200D0000301
     123       0       0       1       0                               0D0000302
     123     171       0       0       0       0       0       000010200D0000303
     123       0       0       1       0                               0D0000304
     508     172       0       0       0       0       0       000010000D0000305
     508       0       0       1       1                               0D0000306
     510     173       0       0       0       0       0       000010000D0000307
     510       0       0       1       1                               0D0000308
     190     174       0       0       0       0       0       000010000D0000309
     190       0       0       1       1                               0D0000310
     116     175       0       0       0       0       0       000010400D0000311
     116       0       0       1       0                               0D0000312
     123     176       0       0       0       0       0       000010200D0000313
     123       0       0       1       0                               0D0000314
     123     177       0       0       0       0       0       000010200D0000315
     123       0       0       1       0                               0D0000316
     508     178       0       0       0       0       0       000010000D0000317
     508       0       0       1       1                               0D0000318
     510     179       0       0       0       0       0       000010000D0000319
     510       0       0       1       1                               0D0000320
     190     180       0       0       0       0       0       000010000D0000321
     190       0       0       1       1                               0D0000322
     116     181       0       0       0       0       0       000010400D0000323
     116       0       0       1       0                               0D0000324
     123     182       0       0       0       0       0       000010200D0000325
     123       0       0       1       0                               0D0000326
     123     183       0       0       0       0       0       000010200D0000327
     123       0       0       1       0                               0D0000328
     508     184       0       0       0       0       0       000010000D0000329
     508       0       0       1       1                               0D0000330
     510     185       0       0       0       0       0       000010000D0000331
     510       0       0       1       1                               0D0000332
     190     186       0       0       0       0       0       000010000D0000333
     190       0       0       1       1                               0D0000334
     116     187       0       0       0       0       0       000010400D0000335
     116       0       0       1       0                               0D0000336
     123     188       0       0       0       0       0       000010200D0000337
     123       0       0       1       0                               0D0000338
     123     189       0       0       0       0       0       000010200D0000339
     123       0       0       1       0                               0D0000340
     508     190       0       0       0       0       0       000010000D0000341
     508       0       0       1       1                               0D0000342
     510     191       0       0       0       0       0       000010000D0000343
     510       0       0       1       1                               0D0000344
     190     192       0       0       0       0       0       000010000D0000345
     190       0       0       1       1                               0D0000346
     116     193       0       0       0       0       0       000010400D0000347
     116       0       0       1       0                               0D0000348
     123     194       0       0       0       0       0       000010200D0000349
     123       0       0       1       0                               0D0000350
     123     195       0       0       0       0       0       000010200D0000351
     123       0       0       1       0                               0D0000352
     508     196       0       0       0       0       0       000010000D0000353
     508       0       0       2       1                               0D0000354
     510     198       0       0       0       0       0       000010000D0000355
     510       0       0       1       1                               0D0000356
     190     199       0       0       0       0       0       000010000D0000357
     190       0       0       1       1                               0D0000358
     116     200       0       0       0       0       0       000010400D0000359
     116       0       0       1       0                               0D0000360
     123     201       0       0       0       0       0       000010200D0000361
     123       0       0       1       0                               0D0000362
     123     202       0       0       0       0       0       000010200D0000363
     123       0       0       1       0                               0D0000364
     508     203       0       0       0       0       0       000010000D0000365
     508       0       0       2       1                               0D0000366
402,1,3;                                                         0000001P0000001
186,5,1,0;                                                       0000003P0000002
514,12,7,0,83,0,95,1,109,1,121,0,135,1,147,1,159,0,171,0,183,0,  0000005P0000003
203,1,215,1;                                                     0000005P0000004
510,9,1,1,17;                                                    0000007P0000005
190,11,13,15;                                                    0000009P0000006
116,0.,0.,0.,0;                                                  0000011P0000007
123,1.,0.,-0.;                                                   0000013P0000008
123,0.,0.,1.;                                                    0000015P0000009
508,4,0,19,1,0,0,0,19,2,1,0,0,19,3,1,0,0,19,4,0,0;               0000017P0000010
504,28,21,23,1,23,2,25,23,1,23,3,27,23,3,23,4,29,23,2,23,4,31,   0000019P0000011
23,1,23,5,33,23,2,23,6,35,23,5,23,6,37,23,4,23,7,39,23,6,23,8,   0000019P0000012
41,23,9,23,8,43,23,9,23,10,45,23,10,23,11,47,23,11,23,7,49,23,   0000019P0000013
12,23,12,53,23,3,23,13,55,23,13,23,7,57,23,5,23,13,59,23,14,23,  0000019P0000014
14,63,23,8,23,11,65,23,10,23,15,67,23,15,23,16,69,23,11,23,16,   0000019P0000015
71,23,9,23,17,73,23,17,23,15,75,23,17,23,18,77,23,8,23,18,79,23, 0000019P0000016
14,23,12,81,23,18,23,16;                                         0000019P0000017
110,0.,0.,0.,0.,0.,6.;                                           0000021P0000018
502,18,0.,0.,0.,0.,0.,6.,0.,25.,0.,0.,25.,6.,40.,0.,0.,40.,0.,   0000023P0000019
6.,40.,25.,6.,40.,7.5,6.,30.,7.5,6.,30.,17.5,6.,40.,17.5,6.,24., 0000023P0000020
12.5,6.,40.,25.,0.,24.,12.5,0.,30.,17.5,18.,40.,17.5,18.,30.,    0000023P0000021
7.5,18.,40.,7.5,18.;                                             0000023P0000022
110,0.,0.,0.,0.,25.,0.;                                          0000025P0000023
110,0.,25.,0.,0.,25.,6.;                                         0000027P0000024
110,0.,0.,6.,0.,25.,6.;                                          0000029P0000025
110,0.,0.,0.,40.,0.,0.;                                          0000031P0000026
110,0.,0.,6.,40.,0.,6.;                                          0000033P0000027
110,40.,0.,0.,40.,0.,6.;                                         0000035P0000028
110,0.,25.,6.,40.,25.,6.;                                        0000037P0000029
110,40.,0.,6.,40.,7.5,6.;                                        0000039P0000030
110,30.,7.5,6.,40.,7.5,6.;                                       0000041P0000031
110,30.,7.5,6.,30.,17.5,6.;                                      0000043P0000032
110,30.,17.5,6.,40.,17.5,6.;                                     0000045P0000033
110,40.,17.5,6.,40.,25.,6.;                                      0000047P0000034
100,0.,0.,0.,4.,0.,4.,0.;                                        0000049P0000035
124,1.,0.,0.,20.,0.,1.,0.,12.5,0.,0.,1.,6.;                      0000051P0000036
110,0.,25.,0.,40.,25.,0.;                                        0000053P0000037
110,40.,25.,0.,40.,25.,6.;                                       0000055P0000038
110,40.,0.,0.,40.,25.,0.;                                        0000057P0000039
100,0.,0.,0.,4.,0.,4.,0.;                                        0000059P0000040
124,1.,0.,0.,20.,0.,1.,0.,12.5,0.,0.,1.,0.;                      0000061P0000041
110,40.,7.5,6.,40.,17.5,6.;                                      0000063P0000042
110,30.,17.5,6.,30.,17.5,18.;                                    0000065P0000043
110,30.,17.5,18.,40.,17.5,18.;                                   0000067P0000044
110,40.,17.5,6.,40.,17.5,18.;                                    0000069P0000045
110,30.,7.5,6.,30.,7.5,18.;                                      0000071P0000046
110,30.,7.5,18.,30.,17.5,18.;                                    0000073P0000047
110,30.,7.5,18.,40.,7.5,18.;                                     0000075P0000048
110,40.,7.5,6.,40.,7.5,18.;                                      0000077P0000049
110,24.,12.5,0.,24.,12.5,6.;                                     0000079P0000050
110,40.,7.5,18.,40.,17.5,18.;                                    0000081P0000051
510,85,1,1,93;                                                   0000083P0000052
190,87,89,91;                                                    0000085P0000053
116,0.,0.,0.,0;                                                  0000087P0000054
123,-0.,1.,0.;                                                   0000089P0000055
123,0.,0.,1.;                                                    0000091P0000056
508,4,0,19,5,0,0,0,19,1,1,0,0,19,6,1,0,0,19,7,0,0;               0000093P0000057
510,97,2,1,105,107;                                              0000095P0000058
190,99,101,103;                                                  0000097P0000059
116,0.,0.,6.,0;                                                  0000099P0000060
123,0.,0.,1.;                                                    0000101P0000061
123,1.,0.,-0.;                                                   0000103P0000062
508,8,0,19,8,0,0,0,19,4,0,0,0,19,6,1,0,0,19,9,1,0,0,19,10,0,0,0, 0000105P0000063
19,11,1,0,0,19,12,1,0,0,19,13,1,0;                               0000105P0000064
508,1,0,19,14,0,0;                                               0000107P0000065
510,111,1,1,119;                                                 0000109P0000066
190,113,115,117;                                                 0000111P0000067
116,0.,25.,0.,0;                                                 0000113P0000068
123,-0.,1.,0.;                                                   0000115P0000069
123,0.,0.,1.;                                                    0000117P0000070
508,4,0,19,15,0,0,0,19,3,1,0,0,19,8,1,0,0,19,16,0,0;             0000119P0000071
510,123,2,1,131,133;                                             0000121P0000072
190,125,127,129;                                                 0000123P0000073
116,0.,0.,0.,0;                                                  0000125P0000074
123,0.,0.,1.;                                                    0000127P0000075
123,1.,0.,-0.;                                                   0000129P0000076
508,4,0,19,2,0,0,0,19,5,1,0,0,19,17,1,0,0,19,15,0,0;             0000131P0000077
508,1,0,19,18,0,0;                                               0000133P0000078
510,137,1,1,145;                                                 0000135P0000079
190,139,141,143;                                                 0000137P0000080
116,40.,0.,0.,0;                                                 0000139P0000081
123,1.,0.,-0.;                                                   0000141P0000082
123,0.,0.,1.;                                                    0000143P0000083
508,6,0,19,7,0,0,0,19,17,1,0,0,19,16,1,0,0,19,13,0,0,0,19,19,0,  0000145P0000084
0,0,19,9,0,0;                                                    0000145P0000085
510,149,1,1,157;                                                 0000147P0000086
190,151,153,155;                                                 0000149P0000087
116,30.,17.5,6.,0;                                               0000151P0000088
123,-0.,1.,0.;                                                   0000153P0000089
123,0.,0.,1.;                                                    0000155P0000090
508,4,0,19,12,0,0,0,19,20,1,0,0,19,21,1,0,0,19,22,0,0;           0000157P0000091
510,161,1,1,169;                                                 0000159P0000092
190,163,165,167;                                                 0000161P0000093
116,30.,7.5,6.,0;                                                0000163P0000094
123,1.,0.,-0.;                                                   0000165P0000095
123,0.,0.,1.;                                                    0000167P0000096
508,4,0,19,23,0,0,0,19,11,1,0,0,19,20,1,0,0,19,24,0,0;           0000169P0000097
510,173,1,1,181;                                                 0000171P0000098
190,175,177,179;                                                 0000173P0000099
116,30.,7.5,6.,0;                                                0000175P0000100
123,-0.,1.,0.;                                                   0000177P0000101
123,0.,0.,1.;                                                    0000179P0000102
508,4,0,19,10,0,0,0,19,23,1,0,0,19,25,1,0,0,19,26,0,0;           0000181P0000103
510,185,1,1,193;                                                 0000183P0000104
192,187,189,4.,191;                                              0000185P0000105
116,20.,12.5,-1.,0;                                              0000187P0000106
123,0.,0.,1.;                                                    0000189P0000107
123,1.,0.,-0.;                                                   0000191P0000108
508,4,0,19,14,0,1,0,195,0,19,27,0,1,0,197,0,19,18,1,1,0,199,0,   0000193P0000109
19,27,1,1,0,201;                                                 0000193P0000110
110,360.,7.,0.,0.,7.,0.;                                         0000195P0000111
110,0.,7.,0.,0.,1.,0.;                                           0000197P0000112
110,0.,1.,0.,360.,1.,0.;                                         0000199P0000113
110,360.,1.,0.,360.,7.,0.;                                       0000201P0000114
510,205,1,1,213;                                                 0000203P0000115
190,207,209,211;                                                 0000205P0000116
116,40.,7.5,6.,0;                                                0000207P0000117
123,1.,0.,-0.;                                                   0000209P0000118
123,0.,0.,1.;                                                    0000211P0000119
508,4,0,19,26,0,0,0,19,19,1,0,0,19,22,1,0,0,19,28,0,0;           0000213P0000120
510,217,1,1,225;                                                 0000215P0000121
190,219,221,223;                                                 0000217P0000122
116,30.,7.5,18.,0;                                               0000219P0000123
123,0.,0.,1.;                                                    0000221P0000124
123,1.,0.,-0.;                                                   0000223P0000125
508,4,0,19,24,0,0,0,19,25,1,0,0,19,28,1,0,0,19,21,0,0;           0000225P0000126
186,229,0,0;                                                     0000227P0000127
514,8,231,1,283,1,295,1,307,1,319,1,331,1,343,1,355,0;           0000229P0000128
510,233,1,1,241;                                                 0000231P0000129
190,235,237,239;                                                 0000233P0000130
116,60.,0.,0.,0;                                                 0000235P0000131
123,0.,1.,0.;                                                    0000237P0000132
123,1.,0.,0.;                                                    0000239P0000133
508,4,0,243,1,1,0,0,243,2,1,0,0,243,3,0,0,0,243,4,0,0;           0000241P0000134
504,18,245,247,1,247,2,249,247,2,247,3,251,247,4,247,3,253,247,  0000243P0000135
1,247,4,255,247,3,247,5,257,247,6,247,5,259,247,4,247,6,261,247, 0000243P0000136
5,247,7,263,247,8,247,7,265,247,6,247,8,267,247,7,247,9,269,247, 0000243P0000137
10,247,9,271,247,8,247,10,273,247,9,247,11,275,247,12,247,11,    0000243P0000138
277,247,10,247,12,279,247,11,247,2,281,247,12,247,1;             0000243P0000139
110,60.,0.,0.,60.,0.,20.;                                        0000245P0000140
502,12,60.,0.,0.,60.,0.,20.,75.,0.,20.,75.,0.,0.,75.,4.,20.,75., 0000247P0000141
4.,0.,64.,4.,20.,64.,4.,0.,64.,18.,20.,64.,18.,0.,60.,18.,20.,   0000247P0000142
60.,18.,0.;                                                      0000247P0000143
110,60.,0.,20.,75.,0.,20.;                                       0000249P0000144
110,75.,0.,0.,75.,0.,20.;                                        0000251P0000145
110,60.,0.,0.,75.,0.,0.;                                         0000253P0000146
110,75.,0.,20.,75.,4.,20.;                                       0000255P0000147
110,75.,4.,0.,75.,4.,20.;                                        0000257P0000148
110,75.,0.,0.,75.,4.,0.;                                         0000259P0000149
110,75.,4.,20.,64.,4.,20.;                                       0000261P0000150
110,64.,4.,0.,64.,4.,20.;                                        0000263P0000151
110,75.,4.,0.,64.,4.,0.;                                         0000265P0000152
110,64.,4.,20.,64.,18.,20.;                                      0000267P0000153
110,64.,18.,0.,64.,18.,20.;                                      0000269P0000154
110,64.,4.,0.,64.,18.,0.;                                        0000271P0000155
110,64.,18.,20.,60.,18.,20.;                                     0000273P0000156
110,60.,18.,0.,60.,18.,20.;                                      0000275P0000157
110,64.,18.,0.,60.,18.,0.;                                       0000277P0000158
110,60.,18.,20.,60.,0.,20.;                                      0000279P0000159
110,60.,18.,0.,60.,0.,0.;                                        0000281P0000160
510,285,1,1,293;                                                 0000283P0000161
190,287,289,291;                                                 0000285P0000162
116,75.,0.,0.,0;                                                 0000287P0000163
123,-1.,0.,0.;                                                   0000289P0000164
123,0.,1.,0.;                                                    0000291P0000165
508,4,0,243,3,1,0,0,243,5,1,0,0,243,6,0,0,0,243,7,0,0;           0000293P0000166
510,297,1,1,305;                                                 0000295P0000167
190,299,301,303;                                                 0000297P0000168
116,75.,4.,0.,0;                                                 0000299P0000169
123,0.,-1.,0.;                                                   0000301P0000170
123,-1.,0.,0.;                                                   0000303P0000171
508,4,0,243,6,1,0,0,243,8,1,0,0,243,9,0,0,0,243,10,0,0;          0000305P0000172
510,309,1,1,317;                                                 0000307P0000173
190,311,313,315;                                                 0000309P0000174
116,64.,4.,0.,0;                                                 0000311P0000175
123,-1.,0.,0.;                                                   0000313P0000176
123,0.,1.,0.;                                                    0000315P0000177
508,4,0,243,9,1,0,0,243,11,1,0,0,243,12,0,0,0,243,13,0,0;        0000317P0000178
510,321,1,1,329;                                                 0000319P0000179
190,323,325,327;                                                 0000321P0000180
116,64.,18.,0.,0;                                                0000323P0000181
123,0.,-1.,0.;                                                   0000325P0000182
123,-1.,0.,0.;                                                   0000327P0000183
508,4,0,243,12,1,0,0,243,14,1,0,0,243,15,0,0,0,243,16,0,0;       0000329P0000184
510,333,1,1,341;                                                 0000331P0000185
190,335,337,339;                                                 0000333P0000186
116,60.,18.,0.,0;                                                0000335P0000187
123,1.,0.,-0.;                                                   0000337P0000188
123,0.,-1.,0.;                                                   0000339P0000189
508,4,0,243,15,1,0,0,243,17,1,0,0,243,1,0,0,0,243,18,0,0;        0000341P0000190
510,345,1,1,353;                                                 0000343P0000191
190,347,349,351;                                                 0000345P0000192
116,65.166666667,6.666666667,0.,0;                               0000347P0000193
123,0.,0.,1.;                                                    0000349P0000194
123,1.,0.,-0.;                                                   0000351P0000195
508,6,0,243,4,1,0,0,243,7,1,0,0,243,10,1,0,0,243,13,1,0,0,243,   0000353P0000196
16,1,0,0,243,18,1,0;                                             0000353P0000197
510,357,1,1,365;                                                 0000355P0000198
190,359,361,363;                                                 0000357P0000199
116,65.166666667,6.666666667,20.,0;                              0000359P0000200
123,0.,0.,1.;                                                    0000361P0000201
123,1.,0.,-0.;                                                   0000363P0000202
508,6,0,243,2,1,0,0,243,5,1,0,0,243,8,1,0,0,243,11,1,0,0,243,14, 0000365P0000203
1,0,0,243,17,1,0;                                                0000365P0000204
S      1G      4D    366P    204                                        T0000001
